<?xml version="1.0" encoding="utf-8" ?>
<svg baseProfile="full" height="297mm" version="1.1" viewBox="0 0 210 297" width="210mm" xmlns="http://www.w3.org/2000/svg" xmlns:ev="http://www.w3.org/2001/xml-events" xmlns:xlink="http://www.w3.org/1999/xlink"><defs /><rect fill="black" height="100%" width="100%" x="0" y="0" /><g fill="none" id="group_1" stroke="red"><polyline fill="none" points="102.5,11.650635094610967 103.33796237848756,11.161370647958355 104.16645625552329,10.666639559443698 104.9854816311072,10.166441829067004 105.25195112008414,10.0" stroke="white" stroke-width="0.5" /><polyline fill="none" points="108.75000000000001,22.475952641916457 109.74150991036485,21.913161862219393 110.7216576189875,21.343811112287888 111.69044312586797,20.767900392121938 112.6478664310062,20.185429701721528 113.59392753440223,19.59639904108668 114.52862643605609,19.000808410217385 115.45196313596769,18.39865780911363 116.36393763413712,17.789947237775433 117.26454993056433,17.174676696202784 118.15380002524934,16.552846184395687 119.03168791819216,15.924455702354152 119.89821360939277,15.289505250078157 120.75337709885116,14.647994827567718 121.59717838656736,13.99992443482283 122.42961747254137,13.345294071843494 123.25069435677315,12.684103738629709 124.06040903926272,12.016353435181472 124.8587615200101,11.34204316149879 125.64575179901529,10.66117291758166 126.39175374691501,10.0" stroke="white" stroke-width="0.5" /><polyline fill="none" points="115.00000000000001,33.30127018922194 116.14505744224213,32.66495307648044 117.2768589824517,32.020982665132074 118.39540462062874,31.369358955176864 119.50069435677314,30.710081946614793 120.592728190885,30.043151639445863 121.6715061229643,29.368568033670087 122.73702815301101,28.68633112928744 123.78929428102515,27.996440926297943 124.82830450700669,27.298897424701583 125.85405883095568,26.59370062449837 126.86655725287213,25.88085052568831 127.86579977275599,25.160347128271386 128.85178639060726,24.432190432247605 129.82451710642596,23.69638043761697 130.78399192021212,22.95291714437948 131.73021083196568,22.201800552535122 132.66317384168664,21.443030662083913 133.58288094937507,20.676607473025854 134.48933215503095,19.902530985360936 135.3825274586542,19.120801199089158 136.26246686024493,18.33141811421053 137.12915035980308,17.534381730725038 137.98257795732863,16.729692048632693 138.8227496528216,15.91734906793349 139.64966544628203,15.097352788627433 140.46332533770988,14.269703210714514 141.26372932710518,13.434400334194747 142.0508774144679,12.591444159068114 142.824769599798,11.740834685334631 143.5854058830956,10.882571912994292 144.33278626436058,10.01665584204709 144.34678339131483,10.0" stroke="white" stroke-width="0.5" /><polyline fill="none" points="114.99999999999999,33.30127018922193 114.99999999999997,33.301270189221924" stroke="white" stroke-width="0.5" /><polyline fill="none" points="114.99999999999999,33.30127018922194 114.99999999999997,33.30127018922193" stroke="white" stroke-width="0.5" /><polyline fill="none" points="114.99999999999997,33.30127018922193 114.99999999999997,33.301270189221924" stroke="white" stroke-width="0.5" /><polyline fill="none" points="114.99999999999999,33.30127018922193 115.0,33.301270189221924" stroke="white" stroke-width="0.5" /><polyline fill="none" points="108.75,22.47595264191645 108.33338593611917,22.719218204777246 107.92624037369018,22.96248376763804 107.52856331271305,23.205749330498847 107.14035475318772,23.449014893359642 106.76161469511425,23.692280456220434 106.39234313849263,23.935546019081237 106.03254008332281,24.178811581942032 105.68220552960486,24.42207714480283 105.34133947733872,24.665342707663623 105.00994192652442,24.908608270524418 104.688012877162,25.151873833385224 104.37555232925136,25.39513939624602 104.07256028279257,25.638404959106815 103.77903673778565,25.881670521967614 103.49498169423055,26.124936084828413 103.22039515212727,26.368201647689208 102.95527711147581,26.61146721055 102.69962757227621,26.8547327734108 102.45344653452847,27.0979983362716 102.21673399823256,27.341263899132393 101.98948996338846,27.584529461993192 101.77171442999621,27.827795024853994 101.5634073980558,28.07106058771479 101.36456886756723,28.314326150575585 101.17519883853049,28.557591713436384 100.99529731094559,28.80085727629718 100.82486428481253,29.04412283915798 100.6638997601313,29.287388402018777 100.51240373690192,29.530653964879573 100.37037621512437,29.773919527740375 100.23781719479864,30.017185090601167 100.11472667592476,30.260450653461966 100.00110465850273,30.50371621632276 99.8969511425325,30.746981779183557 99.80226612801414,30.990247342044356 99.7170496149476,31.233512904905155 99.6413016033329,31.476778467765953 99.57502209317005,31.720044030626752 99.51821108445904,31.963309593487544 99.47086857719987,32.20657515634834 99.4329945713925,32.449840719209135 99.40458906703698,32.693106282069934 99.38565206413331,32.93637184493073 99.37618356268149,33.17963740779153 99.37618356268149,33.42290297065233 99.38565206413332,33.66616853351313 99.40458906703698,33.90943409637392 99.4329945713925,34.15269965923472 99.47086857719987,34.39596522209552 99.51821108445903,34.63923078495632 99.57502209317006,34.88249634781712 99.64130160333292,35.12576191067791 99.7170496149476,35.36902747353871 99.80226612801414,35.61229303639951 99.89695114253252,35.855558599260306 100.00110465850273,36.098824162121105 100.11472667592476,36.3420897249819 100.23781719479862,36.585355287842695 100.37037621512437,36.82862085070349 100.5124037369019,37.071886413564286 100.6638997601313,37.315151976425085 100.82486428481252,37.558417539285884 100.99529731094559,37.80168310214668 101.17519883853049,38.04494866500748 101.36456886756723,38.28821422786828 101.5634073980558,38.53147979072908 101.77171442999622,38.77474535358987 101.98948996338846,39.01801091645067 102.21673399823254,39.26127647931146 102.45344653452847,39.50454204217226 102.69962757227623,39.74780760503306 102.95527711147582,39.99107316789386 103.22039515212727,40.23433873075466 103.49498169423055,40.47760429361546 103.77903673778563,40.72086985647625 104.07256028279258,40.96413541933705 104.37555232925138,41.207400982197846 104.68801287716197,41.45066654505864 105.00994192652442,41.69393210791944 105.34133947733872,41.937197670780236 105.68220552960486,42.180463233641035 106.03254008332281,42.423728796501834 106.39234313849262,42.666994359362626 106.76161469511426,42.910259922223425 107.14035475318772,43.15352548508422 107.52856331271303,43.396791047945015 107.92624037369018,43.640056610805814 108.33338593611917,43.88332217366661 108.75,44.12658773652741" stroke="white" stroke-width="0.5" /><polyline fill="none" points="102.5,11.650635094610966 101.66677187223834,12.13716622033256 100.85248074738035,12.623697346054152 100.0571266254261,13.110228471775752 99.28070950637546,13.596759597497343 98.5232293902285,14.083290723218939 97.78468627698524,14.569821848940535 97.06508016664564,15.056352974662131 96.3644110592097,15.542884100383723 95.68267895467743,16.029415226105318 95.01988385304884,16.51594635182691 94.37602575432396,17.00247747754851 93.75110465850273,17.489008603270104 93.14512056558516,17.9755397289917 92.55807347557128,18.462070854713296 91.98996338846106,18.948601980434887 91.44079030425452,19.435133106156478 90.91055422295163,19.921664231878072 90.39925514455246,20.40819535759967 89.90689306905693,20.894726483321264 89.4334679964651,21.38125760904286 88.97897992677693,21.867788734764453 88.54342885999243,22.35431986048605 88.1268147961116,22.840850986207645 87.72913773513444,23.32738211192924 87.35039767706098,23.813913237650837 86.99059462189118,24.300444363372428 86.64972856962505,24.786975489094026 86.3277995202626,25.273506614815616 86.0248074738038,25.760037740537214 85.74075243024872,26.246568866258812 85.47563438959727,26.733099991980403 85.22945335184953,27.219631117701997 85.00220931700544,27.70616224342359 84.79390228506502,28.192693369145186 84.60453225602828,28.67922449486678 84.43409922989522,29.165755620588378 84.28260320666583,29.652286746309972 84.15004418634011,30.138817872031566 84.03642216891807,30.62534899775316 83.9417371543997,31.111880123474755 83.865989142785,31.59841124919635 83.80917813407397,32.084942374917944 83.77130412826664,32.57147350063954 83.75236712536295,33.05800462636113 83.75236712536295,33.54453575208273 83.77130412826664,34.03106687780432 83.80917813407397,34.51759800352591 83.865989142785,35.00412912924751 83.9417371543997,35.490660254969114 84.03642216891807,35.977191380690705 84.15004418634011,36.463722506412296 84.28260320666583,36.950253632133894 84.43409922989522,37.43678475785549 84.60453225602828,37.92331588357708 84.79390228506503,38.40984700929867 85.00220931700542,38.89637813502027 85.22945335184951,39.38290926074187 85.47563438959727,39.86944038646346 85.7407524302487,40.35597151218506 86.0248074738038,40.84250263790665 86.32779952026259,41.329033763628246 86.64972856962504,41.81556488934984 86.99059462189118,42.302096015071434 87.35039767706098,42.78862714079303 87.72913773513446,43.27515826651462 88.1268147961116,43.76168939223622 88.54342885999243,44.24822051795782 88.97897992677693,44.73475164367941 89.43346799646508,45.221282769401 89.90689306905693,45.7078138951226 90.39925514455246,46.194345020844196 90.91055422295165,46.68087614656579 91.44079030425452,47.167407272287385 91.98996338846106,47.65393839800898 92.55807347557126,48.140469523730566 93.14512056558516,48.62700064945217 93.75110465850271,49.11353177517377 94.37602575432395,49.60006290089535 95.01988385304885,50.08659402661695 95.68267895467743,50.57312515233855 96.36441105920969,51.059656278060146 97.06508016664563,51.546187403781744 97.78468627698524,52.03271852950333 98.5232293902285,52.519249655224925 99.28070950637546,53.00578078094652 100.05712662542608,53.492311906668114 100.85248074738037,53.978843032389705 101.66677187223834,54.4653741581113 102.5,54.9519052838329" stroke="white" stroke-width="0.5" /><polyline fill="none" points="82.60712309074025,10.0 82.21768084837773,10.31267449887658 81.33711021335691,11.042471187458972 80.4849450826916,11.772267876041361 79.66118545638179,12.502064564623753 78.86583133442747,13.231861253206146 78.09888271682867,13.961657941788538 77.3603396035854,14.691454630370933 76.65020199469764,15.421251318953322 75.96846989016538,16.151048007535714 75.31514328998865,16.880844696118107 74.69022219416742,17.6106413847005 74.09370660270169,18.34043807328289 73.52559651559146,19.070234761865287 72.98589193283676,19.800031450447676 72.47459285443757,20.529828139030066 71.99169928039387,21.25962482761246 71.53721121070572,21.989421516194852 71.11112864537307,22.71921820477725 70.71345158439591,23.449014893359635 70.34418002777427,24.17881158194203 70.00331397550815,24.90860827052442 69.69085342759752,25.63840495910681 69.40679838404242,26.368201647689204 69.15114884484282,27.097998336271594 68.92390480999873,27.82779502485399 68.72506627951017,28.557591713436384 68.55463325337709,29.28738840201877 68.41260573159956,30.017185090601167 68.2989837141775,30.746981779183557 68.21376720111095,31.476778467765946 68.15695619239995,32.206575156348336 68.12855068804444,32.93637184493073 68.12855068804444,33.66616853351313 68.15695619239995,34.39596522209551 68.21376720111097,35.12576191067791 68.2989837141775,35.85555859926029 68.41260573159954,36.585355287842695 68.55463325337709,37.315151976425085 68.72506627951017,38.04494866500748 68.92390480999873,38.77474535358987 69.15114884484282,39.50454204217226 69.40679838404242,40.23433873075465 69.69085342759753,40.96413541933704 70.00331397550815,41.69393210791944 70.34418002777427,42.423728796501834 70.71345158439591,43.153525485084224 71.11112864537306,43.88332217366661 71.53721121070572,44.61311886224901 71.99169928039389,45.34291555083139 72.47459285443757,46.07271223941379 72.98589193283676,46.80250892799618 73.52559651559147,47.53230561657857 74.09370660270167,48.26210230516097 74.6902221941674,48.99189899374336 75.31514328998864,49.72169568232575 75.96846989016538,50.45149237090814 76.65020199469764,51.18128905949054 77.3603396035854,51.91108574807292 78.09888271682868,52.64088243665532 78.86583133442747,53.3706791252377 79.66118545638179,54.100475813820104 80.48494508269158,54.8302725024025 81.3371102133569,55.56006919098488 82.21768084837774,56.28986587956727 83.12665698775407,57.01966256814968 84.06403863148591,57.74945925673206 85.02982577957327,58.47925594531445 86.02401843201616,59.20905263389684 87.04661658881456,59.93884932247924 88.09762024996844,60.66864601106164 89.17702941547785,61.398442699644015 90.28484408534275,62.12823938822641 91.4210642595632,62.8580360768088 92.58568993813911,63.58783276539119 93.77872112107056,64.31762945397358 95.00015780835753,65.04742614255598 96.25,65.77722283113837" stroke="white" stroke-width="0.5" /><polyline fill="none" points="63.363663552747774,10.0 62.957959853553845,10.434307280306978 62.08685771998486,11.407369531750168 61.253629592223206,12.380431783193355 60.4582754702689,13.353494034636547 59.70079535412195,14.32655628607974 58.98118924378235,15.299618537522925 58.2994571392501,16.272680788966113 57.65559904052518,17.245743040409305 57.04961494760762,18.218805291852497 56.481504860497424,19.191867543295686 55.95126877919454,20.16492979473887 55.45890670369903,21.137992046182063 55.00441863401086,22.11105429762525 54.58780457013003,23.08411654906844 54.20906451205656,24.05717880051163 53.86819845979043,25.030241051954818 53.56520641333165,26.003303303398013 53.30008837268022,26.976365554841202 53.07284433783613,27.949427806284383 52.88347430879939,28.92249005772758 52.731978285569994,29.895552309170768 52.618356268147956,30.868614560613956 52.54260825653326,31.84167681205714 52.50473425072592,32.81473906350033 52.50473425072592,33.78780131494353 52.54260825653326,34.7608635663867 52.61835626814796,35.7339258178299 52.73197828557,36.706988069273095 52.88347430879939,37.68005032071628 53.07284433783613,38.65311257215947 53.30008837268022,39.62617482360267 53.56520641333165,40.59923707504585 53.868198459790435,41.572299326489045 54.209064512056564,42.545361577932226 54.58780457013003,43.518423829375415 55.00441863401086,44.4914860808186 55.45890670369903,45.4645483322618 55.95126877919454,46.437610583704995 56.48150486049741,47.410672835148176 57.04961494760762,48.383735086591365 57.65559904052518,49.35679733803455 58.299457139250094,50.32985958947774 58.98118924378235,51.30292184092094 59.70079535412195,52.275984092364126 60.4582754702689,53.249046343807315 61.25362959222321,54.22210859525051 62.08685771998485,55.1951708466937 62.957959853553845,56.16823309813688 63.86693599293018,57.141295349580076 64.81378613811387,58.11435760102326 65.79851028910491,59.087419852466454 66.82110844590329,60.060482103909635 67.88158060850903,61.03354435535283 68.97992677692211,62.006606606796026 70.11614695114253,62.97966885823921 71.2902411311703,63.952731109682404 72.50220931700542,64.9257933611256 73.7520515086479,65.89885561256877 75.0397677060977,66.87191786401196 76.36535790935487,67.84498011545516 77.72882211841939,68.81804236689835 79.13016033329126,69.79110461834155 80.56937255397047,70.76416686978472 82.04645878045702,71.73722912122791 83.5614190127509,72.71029137267111 85.11425325085214,73.68335362411429 86.70496149476075,74.65641587555747 88.33354374447671,75.62947812700067 90.0,76.60254037844386" stroke="white" stroke-width="0.5" /><polyline fill="none" points="190.0,76.60254037844388 189.99999999999997,10.0" stroke="white" stroke-width="0.5" /><polyline fill="none" points="15.000000000000007,119.9038105676658 15.000000000000005,119.90381056766579" stroke="white" stroke-width="0.5" /><polyline fill="none" points="15.000000000000007,119.9038105676658 15.000000000000007,119.90381056766579" stroke="white" stroke-width="0.5" /><polyline fill="none" points="15.000000000000007,119.90381056766579 15.000000000000004,119.90381056766577" stroke="white" stroke-width="0.5" /><polyline fill="none" points="15.000000000000004,119.90381056766577 15.000000000000005,119.90381056766579" stroke="white" stroke-width="0.5" /><polyline fill="none" points="15.000000000000005,119.9038105676658 15.000000000000005,119.90381056766579" stroke="white" stroke-width="0.5" /><polyline fill="none" points="15.000000000000009,119.9038105676658 15.000000000000007,119.90381056766579" stroke="white" stroke-width="0.5" /><polyline fill="none" points="21.250000000000007,109.07849302036031 20.83101881075622,108.83932743889604 20.416771872238357,108.60836182022483 20.007259184446415,108.3855961643467 19.602480747380387,108.1710304712616 19.20243656104028,107.96466474096957 18.807126625426093,107.76649897347063 18.416550940537817,107.57653316876474 18.030709506375466,107.39476732685188 17.649602322939028,107.22120144773207 17.27322939022851,107.05583553140535 16.90159070824392,106.89866957787171 16.534686276985237,106.74970358713111 16.172516096452473,106.60893755918357 15.815080166645634,106.4763714940291 15.462378487564708,106.35200539166767 15.114411059209703,106.23583925209931 14.771177881580613,106.127873075324 14.432678954677444,106.02810686134175 14.098914278500196,105.93654061015259 13.769883853048864,105.85317432175647 13.44558767832345,105.77800799615343 13.126025754323956,105.71104163334344 12.81119808105038,105.6522752333265 12.50110465850272,105.60170879610261 12.195745486680979,105.55934232167182 11.895120565585158,105.52517581003404 11.599229895215258,105.49920926118936 11.308073475571272,105.48144267513773 11.021651306653206,105.47187605187918 10.739963388461062,105.47050939141366 10.46300972099483,105.47734269374119 10.19079030425452,105.49237595886181 10.0,105.50894762408166" stroke="white" stroke-width="0.5" /><polyline fill="none" points="27.500000000000004,98.25317547305482 26.662037621512436,97.77484431012628 25.833543744476707,97.31291307278387 25.014518368892823,96.86738176102759 24.204961494760763,96.4382503748574 23.40487312208055,96.02551891427336 22.614253250852173,95.62918737927545 21.833101881075628,95.24925576986365 21.06141901275092,94.88572408603795 20.29920464587805,94.53859232779837 19.546458780457016,94.20786049514491 18.80318141648782,93.89352858807761 18.069372553970464,93.59559660659642 17.345032192904938,93.31406455070135 16.630160333291258,93.04893242039239 15.924756975129409,92.80020021566953 15.228822118419394,92.56786793653282 14.542355763161217,92.35193558298221 13.86535790935488,92.15240315501774 13.197828557000381,91.9692706526394 12.53976770609772,91.80253807584715 11.89117535664689,91.65220542464105 11.252051508647902,91.51827269902107 10.62239616210075,91.40073989898721 10.00220931700543,91.29960702453944 10.0,91.29930049707586" stroke="white" stroke-width="0.5" /><polyline fill="none" points="33.75,87.42785792574935 32.49305643226865,86.71036118135655 31.250315616715056,86.01746432534293 30.021777553339227,85.3491673577085 28.807442242141143,84.70547027845323 27.607309683120818,84.08637308757716 26.42137987627825,83.4918757850803 25.249652821613434,82.92197837096258 24.092128519126376,82.37668084522404 22.948806968817063,81.85598320786468 21.819688170685513,81.35988545888449 20.704772124731726,80.88838759828354 19.604058830955687,80.44148962606174 18.517548289357403,80.01919154221912 17.44524049993688,79.62149334675567 16.387135462694108,79.24839503967142 15.343233177629088,78.89989662096635 14.31353364474182,78.57599809064044 13.29803686403232,78.27669944869372 12.296742835500567,78.0020006951262 11.30965155914657,77.75190182993785 10.336763034970332,77.5264028531287 10.0,77.45583188116005" stroke="white" stroke-width="0.5" /><polyline fill="none" points="40.0,76.60254037844386 38.32407524302487,75.6458780525868 36.667087488953406,74.72201557790196 35.02903673778564,73.83095295438937 33.40992298952152,72.97269018204904 31.809746244161083,72.14722726088092 30.228506501704338,71.3545641908851 28.666203762151248,70.59470097206149 27.12283802550183,69.8676376044101 25.598409291756088,69.17337408793097 24.09291756091402,68.51191042262407 22.60636283297563,67.88324660848944 21.13874510794092,67.28738264552703 19.69006438580987,66.72431853373688 18.2603206665825,66.19405427311897 16.84951395025881,65.69658986367328 15.457644236838783,65.23192530539986 14.08471152632243,64.80006059829866 12.730715818709756,64.4009957423697 11.395657114000755,64.034730737613 10.07953541219543,63.70126558402854 10.0,63.68283063117991" stroke="white" stroke-width="0.5" /><polyline fill="none" points="114.99999999999999,33.30127018922195 114.99999999999997,33.301270189221945" stroke="white" stroke-width="0.5" /><polyline fill="none" points="108.74999999999997,44.126587736527426 109.16898118924374,44.36575331799169 109.5832281277616,44.596718936662896 109.99274081555357,44.81948459254105 110.39751925261959,45.03405028562613 110.79756343895968,45.24041601591816 111.1928733745739,45.43858178341712 111.58344905946217,45.62854758812303 111.96929049362451,45.81031343003587 112.35039767706095,45.98387930915565 112.72677060977145,46.14924522548236 113.09840929175607,46.30641117901603 113.46531372301476,46.45537716975663 113.8274839035475,46.59614319770417 114.18491983335436,46.72870926285865 114.53762151243527,46.85307536522007 114.88558894079027,46.96924150478843 115.22882211841936,47.07720768156372 115.56732104532253,47.176973895545956 115.90108572149978,47.26854014673514 116.2301161469511,47.351906435131255 116.55441232167652,47.42707276073431 116.87397424567602,47.494039123544304 117.18880191894961,47.55280552356124 117.49889534149726,47.60337196078511 117.804254513319,47.645738435215925 118.10487943441481,47.679904946853675 118.40077010478474,47.705871495698375 118.69192652442871,47.723638081749996 118.97834869334679,47.733204705008575 119.26003661153894,47.73457136547408 119.53699027900515,47.72773806314653 119.80920969574545,47.71270479802592 120.07669486175986,47.68947157011225 120.33944577704833,47.65803837940551 120.59746244161089,47.61840522590572 120.85074485544752,47.57057210961287 121.09929301855823,47.514539030526954 121.34310693094304,47.45030598864798 121.58218659260193,47.37787298397595 121.81653200353489,47.29724001651085 122.04614316374193,47.208407086252684 122.27102007322304,47.11137419320147 122.49116273197828,47.0061413373572 122.70657114000755,46.89270851871986 122.91724529731093,46.77107573728946 123.12318520388837,46.641242993066 123.3243908597399,46.50321028604948 123.52086226486551,46.3569776162399 123.71259941926522,46.20254498363725 123.89960232293899,46.03991238824156 124.08187097588686,45.8690798300528 124.2594053781088,45.69004730907098 124.43220552960483,45.502814825296085 124.60027143037493,45.30738237872815 124.76360308041913,45.10374996936714 124.92220047973738,44.89191759721308 125.07606362832973,44.671885262265945 125.22519252619617,44.44365296452576 125.36958717333667,44.20722070399252 125.50924756975127,43.96258848066621 125.64417371543993,43.709756294546835 125.7743656104027,43.448724145634415 125.89982325463956,43.17949203392892 126.02054664815046,42.902059959430375 126.13653579093547,42.616427922138755 126.24779068299455,42.32259592205409 126.35431132432771,42.02056395917636 126.45609771493497,41.71033203350557 126.5531498548163,41.39190014504172 126.6454677439717,41.065268293784804 126.73305138240119,40.73043647973483 126.81590077010475,40.38740470289179 126.8940159070824,40.036172963255694 126.96739679333416,39.676741260826546 127.03604342885995,39.309109595604326 127.09995581365988,38.93327796758905 127.15913394773385,38.549246376780715 127.2135778310819,38.15701482317932 127.26328746370405,37.756583306784854 127.30826284560027,37.347951827597335 127.34850397677059,36.93112038561676 127.38401085721497,36.50608898084312 127.41478348693344,36.07285761327642 127.440821865926,35.63142628291666 127.46212599419262,35.18179498976383 127.47869587173335,34.72396373381795 127.49053149854814,34.257932515079005 127.497632874637,33.783701333547 127.49999999999997,33.301270189221945" stroke="white" stroke-width="0.5" /><polyline fill="none" points="102.49999999999999,54.9519052838329 103.33796237848755,55.43023644676143 104.16645625552327,55.89216768410384 104.98548163110719,56.337698995860144 105.79503850523922,56.76683038203031 106.59512687791944,57.17956184261436 107.38574674914783,57.575893377612296 108.16689811892437,57.95582498702411 108.9385809872491,58.319356670849785 109.70079535412192,58.66648842908934 110.45354121954296,58.997220261742775 111.19681858351218,59.31155216881012 111.93062744602953,59.609484150291316 112.65496780709506,59.89101620618639 113.36983966670876,60.15614833649535 114.0752430248706,60.40488054121819 114.77117788158058,60.63721282035491 115.45764423683876,60.853145173905496 116.1346420906451,61.052677601869966 116.80217144299962,61.23581010424833 117.46023229390228,61.402542681040565 118.1088246433531,61.55287533224667 118.7479484913521,61.686808057866656 119.37760383789926,61.80434085790053 119.99779068299458,61.90547373234828 120.60850902663805,61.990206681209905 121.20975886882968,62.058539704485405 121.8015402095695,62.1104728021748 122.38385304885745,62.146005974278054 122.95669738669359,62.1651392207952 123.5200732230779,62.16787254172622 124.07398055801033,62.15420593707111 124.61841939149097,62.1241394068299 125.15338972351975,62.07767295100255 125.6788915540967,62.01480656958908 126.1949248832218,61.9355402625895 126.70148971089507,61.83987403000379 127.19858603711653,61.72780787183196 127.68621386188613,61.59934178807402 128.16437318520389,61.45447577872994 128.63306400706983,61.29320984379975 129.0922863274839,61.11554398328344 129.54204014644614,60.921478197180996 129.98232546395656,60.71101248549245 130.41314228001517,60.484146848217776 130.8344905946219,60.240881285356984 131.2463704077768,59.98121579691006 131.64878171947984,59.705150382877015 132.04172452973108,59.41268504325786 132.4251988385305,59.10381977805257 132.79920464587804,58.778554587261176 133.16374195177377,58.436889470883656 133.51881075621765,58.07882442892 133.8644110592097,57.70435946137023 134.2005428607499,57.31349456823435 134.52720616083826,56.90622974951234 134.8444009594748,56.48256500520421 135.15212725665953,56.04250033530996 135.45038505239236,55.58603573982958 135.7391743466734,55.1131712187631 136.0184951395026,54.62390677211048 136.28834743087992,54.11824239987174 136.54873122080545,53.59617810204688 136.79964650927914,53.05771387863591 137.04109329630097,52.50284972963881 137.27307158187097,51.931585655055585 137.49558136598915,51.343921654886245 137.70862264865548,50.73985772913079 137.91219542987,50.1193938777892 138.10629970963262,49.48253010086149 138.29093548794344,48.82926639834767 138.46610276480243,48.159602770247716 138.63180154020955,47.47353921656165 138.78803181416487,46.77107573728946 138.93479358666835,46.052212332431154 139.07208685771997,45.316949001986714 139.19991162731978,44.56528574595616 139.31826789546776,43.79722256433949 139.42715566216387,43.012759457136696 139.52657492740815,42.21189642434777 139.6165256912006,41.39463346597273 139.69700795354123,40.56097058201158 139.76802171443,39.710907772464296 139.82956697386695,38.8444450373309 139.88164373185202,37.961582376611375 139.92425198838532,37.06231979030573 139.95739174346676,36.14665727841397 139.98106299709633,35.21459484093608 139.9952657492741,34.26613247787207 140.0,33.30127018922194" stroke="white" stroke-width="0.5" /><polyline fill="none" points="96.25,65.77722283113837 97.50694356773134,66.49471957553116 98.74968438328493,67.18761643154478 99.9782224466608,67.85591339917923 101.19255775785885,68.49961047843449 102.39269031687917,69.11870766931055 103.57862012372176,69.71320497180747 104.75034717838658,70.28310238592518 105.90787148087364,70.8283999116637 107.05119303118293,71.34909754902304 108.18031182931446,71.8451952980032 109.29522787526828,72.3166931586042 110.3959411690443,72.763591130826 111.4824517106426,73.1858892146686 112.55475950006313,73.58358741013205 113.61286453730591,73.95668571721632 114.65676682237091,74.3051841359214 115.68646635525816,74.62908266624726 116.70196313596767,74.92838130819398 117.70325716449945,75.20308006176153 118.69034844085343,75.45317892694986 119.66323696502967,75.67867790375904 120.62192273702816,75.87957699218902 121.5664057568489,76.05587619223984 122.49668602449185,76.20757550391144 123.41276353995708,76.33467492720388 124.31463830324454,76.43717446211713 125.20231031435426,76.51507410865122 126.0757795732862,76.56837386680611 126.9350460800404,76.59707373658182 127.78010983461685,76.60117371797836 128.61097083701551,76.58067381099569 129.42762908723645,76.53557401563386 130.23008458527966,76.46587433189285 131.01833733114506,76.37157475977264 131.7923873248327,76.25267529927328 132.55223456634263,76.1091759503947 133.29787905567477,75.94107671313697 134.0293207928292,75.74837758750006 134.74655977780583,75.53107857348394 135.44959601060472,75.28917967108866 136.13842949122585,75.02268088031418 136.8130602196692,74.73158220116052 137.47348819593483,74.41588363362771 138.11971342002272,74.0755851777157 138.75173589193284,73.71068683342449 139.3695556116652,73.32118860075411 139.97317257921978,72.90709047970456 140.56258679459663,72.46839247027582 141.13779825779574,72.0050945724679 141.69880696881708,71.51719678628079 142.24561292766066,71.0046991117145 142.77821613432647,70.46760154876904 143.29661658881454,69.90590409744438 143.80081429112485,69.31960675774056 144.29080924125742,68.70870952965754 144.76660143921222,68.07321241319535 145.22819088498926,67.41311540835396 145.67557757858856,66.7284185151334 146.1087615200101,66.01912173353368 146.52774270925389,65.28522506355475 146.9325211463199,64.52672850519664 147.32309683120818,63.743632058459355 147.6994697639187,62.935935723342894 148.06163994445146,62.10363949984725 148.40960737280648,61.2467433879724 148.74337204898373,60.3652473877184 149.06293397298322,59.45915149908521 149.36829314480497,58.528455722072835 149.65944956444892,57.57316005668126 149.93640323191516,56.59326450291054 150.19915414720364,55.58876906076061 150.44770231031436,54.559673730231495 150.68204772124733,53.50597851132322 150.90219038000254,52.42768340403575 151.10813028657998,51.3247884083691 151.29986744097968,50.19729352432327 151.47740184320162,49.04519875189826 151.64073349324582,47.86850409109407 151.78986239111222,46.667209541910694 151.92478853680092,45.441315104348135 152.04551193031185,44.1908207784064 152.152032571645,42.915726564085475 152.2443504608004,41.61603246138537 152.32246559777803,40.29173847030609 152.38637798257795,38.94284459084762 152.43608761520008,37.569350823009984 152.4715944956445,36.17125716679315 152.49289862391112,34.74856362219713 152.5,33.30127018922194" stroke="white" stroke-width="0.5" /><polyline fill="none" points="90.0,76.60254037844386 91.67592475697512,77.55920270430092 93.33291251104657,78.48306517898574 94.97096326221438,79.37412780249834 96.59007701047847,80.23239057483869 98.19025375583891,81.05785349600677 99.77149349829568,81.85051656600264 101.33379623784877,82.61037978482625 102.87716197449818,83.33744315247762 104.4015907082439,84.03170666895676 105.90708243908595,84.69317033426363 107.39363716702437,85.32183414839828 108.8612548920591,85.91769811136068 110.30993561419012,86.48076222315083 111.73967933341751,87.01102648376876 113.1504860497412,87.50849089321443 114.54235576316124,87.97315545148787 115.91528847367755,88.40502015858905 117.26928418129025,88.804085014518 118.60434288599926,89.17035001927472 119.92046458780456,89.50381517285916 121.21764928670623,89.8044804752714 122.49589698270422,90.07234592651139 123.75520767579853,90.30741152657912 124.99558136598915,90.50967727547462 126.21701805327612,90.67914317319784 127.41951773765938,90.81580921974887 128.603080419139,90.91967541512764 129.76770609771495,90.99074175933417 130.9133947733872,91.02900825236844 132.0401464461558,91.0344748942305 133.14796111602072,91.00714168492027 134.23683878298198,90.94700862443784 135.30677944703953,90.85407571278314 136.35778310819342,90.72834294995621 137.38984976644363,90.56981033595704 138.40297942179018,90.37847787078563 139.39717207423305,90.15434555444197 140.3724277237723,89.89741338692609 141.3287463704078,89.60768136823793 142.26612801413964,89.28514949837755 143.18457265496784,88.92981777734494 144.0840802928923,88.54168620514005 144.96465092791314,88.12075478176295 145.8262845600303,87.66702350721361 146.6689811892438,87.180492381492 147.4927408155536,86.66116140459818 148.29756343895974,86.10903057653209 149.0834490594622,85.52409989729377 149.85039767706098,84.9063693668832 150.5984092917561,84.2558389853004 151.32748390354755,83.57250875254536 152.03762151243532,82.85637866861806 152.7288221184194,82.10744873351852 153.40108572149984,81.32571894724676 154.05441232167658,80.51118930980275 154.68880191894962,79.66385982118646 155.30425451331905,78.78373048139797 155.90077010478475,77.87080129043721 156.4783486933468,76.92507224830425 157.03699027900518,75.94654335499901 157.5766948617599,74.93521461052154 158.0974624416109,73.89108601487183 158.59929301855828,72.81415756804986 159.08218659260194,71.70442927005567 159.54614316374196,70.56190112088922 159.9911627319783,69.38657312055054 160.41724529731096,68.17844526903963 160.82439085973994,66.93751756635645 161.21259941926525,65.66379001250104 161.5818709758869,64.35726260747339 161.93220552960486,63.0179353512735 162.26360308041913,61.64580824390135 162.57606362832976,60.24088128535696 162.86958717333673,58.80315447564034 163.14417371544,57.33262781475148 163.39982325463959,55.82930130269038 163.6365357909355,54.293174939457025 163.85431132432774,52.72424872505144 164.05314985481633,51.1225226594736 164.23305138240121,49.487996742723524 164.39401590708243,47.8206709748012 164.53604342886,46.12054535570664 164.6591339477339,44.38761988543985 164.76328746370407,42.6218945640008 164.84850397677062,40.823369391389505 164.91478348693346,38.99204436760599 164.96212599419266,37.127919492650214 164.99053149854817,35.23099476652219 165.0,33.30127018922193" stroke="white" stroke-width="0.5" /><polyline fill="none" points="15.0,119.9038105676658 90.0,163.20508075688772" stroke="white" stroke-width="0.5" /><polyline fill="none" points="21.249999999999993,109.07849302036033 96.25,152.37976320958225" stroke="white" stroke-width="0.5" /><polyline fill="none" points="27.49999999999999,98.25317547305484 102.5,141.55444566227675" stroke="white" stroke-width="0.5" /><polyline fill="none" points="33.749999999999986,87.42785792574935 108.75,130.72912811497127" stroke="white" stroke-width="0.5" /><polyline fill="none" points="39.99999999999998,76.60254037844388 115.0,119.9038105676658" stroke="white" stroke-width="0.5" /><polyline fill="none" points="189.99999999999997,76.60254037844388 190.56179775280896,76.8911790687596 191.1235955056179,77.17325778884089 191.68539325842696,77.44877653868774 192.24719101123594,77.71773531830011 192.8089887640449,77.98013412767806 193.37078651685394,78.23597296682155 193.93258426966293,78.48525183573061 194.49438202247188,78.72797073440518 195.05617977528084,78.96412966284532 195.61797752808985,79.19372862105101 196.17977528089884,79.41676760902227 196.74157303370788,79.63324662675907 197.30337078651684,79.84316567426143 197.86516853932582,80.04652475152933 198.42696629213484,80.24332385856279 198.98876404494382,80.43356299536178 199.55056179775278,80.61724216192633 200.0,80.75893751899042" stroke="white" stroke-width="0.5" /><polyline fill="none" points="183.74999999999997,87.42785792574935 184.45224719101122,87.81270951283699 185.15449438202242,88.18881447294535 185.8567415730337,88.5561728060745 186.55898876404493,88.91478451222434 187.26123595505615,89.26464959139493 187.9634831460674,89.60576804358625 188.66573033707863,89.93813986879832 189.36797752808985,90.26176506703109 190.0702247191011,90.5766436382846 190.7724719101123,90.88277558255886 191.47471910112358,91.18016089985389 192.1769662921348,91.46879959016962 192.87921348314603,91.74869165350609 193.58146067415728,92.01983708986327 194.2837078651685,92.28223589924121 194.98595505617976,92.5358880816399 195.688202247191,92.78079363705929 196.3904494382022,93.01695256549944 197.09269662921346,93.24436486696032 197.7949438202247,93.46303054144194 198.49719101123594,93.67294958894429 199.1994382022472,93.87412200946738 199.90168539325842,94.06654780301122 200.0,94.09226288633026" stroke="white" stroke-width="0.5" /><polyline fill="none" points="177.5,98.25317547305484 178.34269662921346,98.73423995691438 179.18539325842693,99.20437115704986 180.02808988764048,99.66356907346126 180.8707865168539,100.11183370614857 181.7134831460674,100.54916505511179 182.55617977528092,100.97556312035097 183.3988764044944,101.39102790186602 184.24157303370788,101.79555939965701 185.08426966292134,102.1891576137239 185.9269662921348,102.57182254406673 186.76966292134833,102.9435541906855 187.6123595505618,103.30435255358017 188.45505617977528,103.65421763275074 189.29775280898878,103.99314942819726 190.14044943820224,104.32114793991968 190.98314606741573,104.63821316791801 191.8258426966292,104.94434511219227 192.6685393258427,105.23954377274244 193.51123595505618,105.52380914956856 194.35393258426964,105.79714124267058 195.19662921348313,106.05954005204852 196.03932584269666,106.31100557770237 196.8820224719101,106.55153781963214 197.7247191011236,106.78113677783784 198.5674157303371,106.99980245231947 199.41011235955054,107.20753484307698 200.0,107.3452942180004" stroke="white" stroke-width="0.5" /><polyline fill="none" points="171.25,109.07849302036033 172.23314606741573,109.65577040099178 173.21629213483143,110.21992784115434 174.19943820224722,110.77096534084804 175.18258426966293,111.3088829000728 176.16573033707866,111.83368051882867 177.1488764044944,112.34535819711567 178.13202247191012,112.84391593493376 179.11516853932585,113.32935373228293 180.09831460674155,113.8016715891632 181.08146067415728,114.26086950557459 182.06460674157304,114.7069474815171 183.04775280898878,115.13990551699071 184.0308988764045,115.55974361199542 185.01404494382024,115.96646176653122 185.99719101123597,116.36005998059811 186.98033707865167,116.74053825419612 187.9634831460674,117.10789658732523 188.94662921348313,117.46213497998545 189.9297752808989,117.80325343217677 190.91292134831463,118.1312519438992 191.89606741573033,118.44613051515273 192.8792134831461,118.74788914593736 193.8623595505618,119.03652783625309 194.84550561797752,119.31204658609994 195.82865168539325,119.57444539547787 196.81179775280896,119.8237242643869 197.79494382022472,120.05988319282704 198.77808988764045,120.2829221807983 199.76123595505618,120.49284122830065 200.0,120.54063529715164" stroke="white" stroke-width="0.5" /><polyline fill="none" points="165.0,119.9038105676658 166.12359550561797,120.57730084506917 167.24719101123594,121.23548452525883 168.37078651685394,121.8783616082348 169.4943820224719,122.50593209399702 170.61797752808988,123.11819598254554 171.74157303370788,123.71515327388038 172.86516853932588,124.29680396800148 173.98876404494382,124.86314806490886 175.11235955056176,125.4141855646025 176.23595505617976,125.94991646708245 177.35955056179776,126.47034077234872 178.48314606741573,126.97545848040126 179.6067415730337,127.46526959124006 180.7303370786517,127.9397741048652 181.85393258426967,128.3989720212766 182.97752808988767,128.84286334047425 184.10112359550558,129.2714480624582 185.22471910112358,129.68472618722845 186.34831460674155,130.082697714785 187.47191011235955,130.4653626451278 188.59550561797752,130.83272097825693 189.71910112359552,131.18477271417237 190.8426966292135,131.52151785287404 191.96629213483146,131.842956394362 193.08988764044943,132.14908833863626 194.2134831460674,132.4399136856968 195.33707865168537,132.71543243554365 196.46067415730337,132.97564458817678 197.58426966292134,133.2205501435962 198.70786516853937,133.4501491018019 199.8314606741573,133.66444146279386 200.0,133.6942893273606" stroke="white" stroke-width="0.5" /><polyline fill="none" points="15.000000000000007,206.50635094610965 14.990531498548169,204.57662636880937 14.962125994192656,202.67970164268135 14.914783486933475,200.81557676772564 14.848503976770616,198.98425174394205 14.763287463704081,197.18572657133078 14.659133947733878,195.42000124989178 14.536043428859998,193.68707577962496 14.394015907082442,191.9869501605304 14.233051382401214,190.31962439260803 14.053149854816311,188.68509847585796 13.85431132432774,187.08337241028016 13.636535790935492,185.51444619587457 13.399823254639568,183.9783198326412 13.144173715439974,182.4749933205801 12.869587173336702,181.00446665969125 12.576063628329758,179.5667398499746 12.263603080419138,178.1618128914302 11.932205529604849,176.7896857840581 11.581870975886883,175.4503585278582 11.212599419265246,174.14383112283053 10.824390859739932,172.87010356897514 10.417245297310947,171.629175866292 10.0,170.4461054813309" stroke="white" stroke-width="0.5" /><polyline fill="none" points="115.00000000000001,206.50635094610965 114.96906956192399,205.87550047523015 114.93245802297689,205.24792998946793 114.89016538315873,204.62363948882296 114.84219164246939,204.00262897329515 114.78853680090899,203.38489844288458 114.72920085847748,202.77044789759128 114.66418381517488,202.15927733741515 114.59348567100116,201.55138676235626 114.51710642595633,200.94677617241456 114.4350460800404,200.3454455675901 114.3473046332534,199.74739494788292 114.25388208559527,199.15262431329293 114.15477843706603,198.56113366382016 114.04999368766572,197.97292299946463 113.9395278373943,197.3879923202263 113.82338088625175,196.80634162610517 113.7015528342381,196.2279709171013 113.57404368135336,195.65288019321466 113.44085342759753,195.08106945444524 113.30198207297059,194.51253870079302 113.15742961747256,193.94728793225806 113.00719606110341,193.38531714884036 112.85128140386315,192.82662635053978 112.68968564575181,192.27121553735648 112.52240878676936,191.7190847092904 112.34945082691578,191.17023386634153 112.17081176619114,190.6246630085099 111.98649160459537,190.0823721357955 111.79649034212852,189.54336124819832 111.60080797879058,189.0076303457184 111.3994445145815,188.47517942835563 111.19239994950132,187.94600849611012 110.97967428355005,187.42011754898184 110.76126751672768,186.89750658697074 110.53717964903423,186.37817561007694 110.30741068046964,185.86212461830036 110.07196061103396,185.34935361164094 109.8308294407272,184.83986259009882 109.5840171695493,184.3336515536738 109.33152379750032,183.83072050236612 109.07334932458024,183.33106943617562 108.80949375078903,182.83469835510235 108.53995707612675,182.34160725914631 108.26473930059338,181.85179614830753 107.98384042418887,181.3652650225859 107.69726044691326,180.88201388198152 107.40499936876657,180.4020427264944 107.10705718974877,179.92535155612447 106.80343390985986,179.45194037087177 106.49412952909987,178.9818091707363 106.17914404746877,178.51495795571805 105.85847746496654,178.05138672581703 105.53212978159323,177.59109548103322 105.20010099734884,177.13408422136663 104.86239111223331,176.6803529468173 104.51900012624668,176.22990165738517 104.16992803938896,175.78273035307024 103.81517485166015,175.33883903387257 103.45474056306023,174.89822769979213 103.0886251735892,174.46089635082888 102.71682868324706,174.0268449869829 102.33935109203384,173.5960736082541 101.95619239994951,173.16858221464253 101.56735260699406,172.7443708061482 101.17283171316753,172.32343938277108 100.77262971846989,171.90578794451122 100.36674662290116,171.49141649136857 99.9551824264613,171.0803250233431 99.53793712915035,170.6725135404349 99.11501073096832,170.26798204264392 98.68640323191516,169.86673052997014 98.2521146319909,169.4687590024136 97.81214493119556,169.0740674599743 97.36649412952912,168.68265590265221 96.91516222699153,168.29452433044733 96.45814922358288,167.9096727433597 95.99545511930312,167.52810114138927 95.52707991415227,167.14980952453607 95.05302360813027,166.7747978928001 94.57328620123721,166.40306624618134 94.08786769347304,166.03461458467984 93.59676808483778,165.66944290829554 93.09998737533141,165.30755121702848 92.59752556495393,164.9489395108786 92.08938265370533,164.59360778984598 91.57555864158566,164.2415560539306 91.05605352859487,163.8927843031324 90.53086731473299,163.54729253745145 90.0,163.20508075688772" stroke="white" stroke-width="0.5" /><polyline fill="none" points="127.50000000000001,206.50635094610965 127.48216765559904,205.70576124541378 127.4567605100366,204.90954485820765 127.42377856331272,204.11770178449112 127.38322181542735,203.33023202426418 127.33509026638052,202.54713557752686 127.27938391617224,201.7684124442793 127.21610276480244,200.99406262452126 127.14524681227121,200.22408611825284 127.06681605857847,199.45848292547407 126.98081050372427,198.69725304618493 126.88723014770864,197.9403964803855 126.78607499053153,197.18791322807562 126.67734503219292,196.43980328925537 126.56104027269286,195.6960666639248 126.43716071203133,194.95670335208382 126.30570635020833,194.2217133537325 126.16667718722384,193.49109666887077 126.0200732230779,192.7648532974987 125.86589445777048,192.0429832396163 125.70414089130159,191.3254864952235 125.53481252367126,190.61236306432033 125.35790935487945,189.9036129469068 125.17343138492616,189.1992361429829 124.9813786138114,188.49923265254859 124.78175104153516,187.80360247560398 124.57454866809746,187.11234561214894 124.35977149349831,186.4254620621836 124.13741951773767,185.74295182570785 123.90749274081556,185.06481490272174 123.669991162732,184.3910512932253 123.42491478348694,183.7216609972184 123.17226360308042,183.05664401470122 122.91203762151244,182.3960003456736 122.64423683878297,181.73972999013566 122.36886125489207,181.08783294808737 122.08591086983968,180.44030921952864 121.79538568362581,179.7971588044596 121.4972856962505,179.1583817028802 121.19161090771368,178.52397791479038 120.87836131801541,177.89394744019023 120.55753692715565,177.26829027907974 120.22913773513444,176.6470064314588 119.89316374195177,176.03009589732758 119.54961494760764,175.41755867668596 119.19849135210201,174.80939476953398 118.83979295543493,174.2056041758716 118.47351975760637,173.60618689569887 118.09967175861634,173.01114292901576 117.71824895846484,172.4204722758223 117.32925135715186,171.83417493611847 116.93267895467746,171.2522509099043 116.52853175104153,170.6747001971797 116.11680974624417,170.10152279794477 115.69751294028532,169.53271871219948 115.27064133316502,168.96828793994382 114.83619492488323,168.40823048117778 114.39417371543996,167.85254633590137 113.94457770483524,167.30123550411457 113.48740689306905,166.75429798581746 113.02266128014139,166.21173378100997 112.55034086605227,165.67354288969204 112.07044565080167,165.13972531186383 111.5829756343896,164.6102810475252 111.08793081681607,164.08521009667624 110.58531119808106,163.5645124593169 110.07511677818458,163.0481881354472 109.55734755712663,162.5362371250671 109.03200353490722,162.02865942817664 108.49908471152632,161.5254550447758 107.95859108698397,161.02662397486466 107.41052266128015,160.53216621844308 106.85487943441484,160.04208177551115 106.2916614063881,159.55637064606887 105.72086857719987,159.07503283011624 105.14250094685013,158.59806832765318 104.55655851533898,158.12547713867983 103.96304128266632,157.65725926319607 103.36194924883222,157.1934147012019 102.75328241383664,156.73394345269742 102.13704077767959,156.27884551768256 101.51322434036108,155.82812089615734 100.88183310188107,155.38176958812173 100.24286706223963,154.93979159357576 99.59632622143668,154.50218691251942 98.94221057947229,154.06895554495273 98.28052013634642,153.64009749087566 97.61125489205908,153.21561275028822 96.93441484661028,152.79550132319042 96.25,152.37976320958225" stroke="white" stroke-width="0.5" /><polyline fill="none" points="140.0,206.50635094610965 139.99526574927407,205.53602201559747 139.98106299709633,204.57115972694731 139.95739174346673,203.61176408015928 139.9242519883853,202.65783507523318 139.88164373185202,201.70937271216917 139.82956697386697,200.76637699096727 139.76802171443,199.82884791162735 139.69700795354123,198.89678547414945 139.6165256912006,197.9701896785336 139.52657492740815,197.04906052477972 139.42715566216387,196.13339801288802 139.31826789546776,195.2232021428583 139.19991162731978,194.3184729146906 139.07208685772,193.419210328385 138.93479358666838,192.52541438394135 138.7880318141649,191.63708508135977 138.63180154020955,190.75422242064025 138.4661027648024,189.87682640178278 138.29093548794344,189.00489702478734 138.1062997096326,188.13843428965393 137.91219542986997,187.27743819638255 137.70862264865548,186.4219087449733 137.49558136598912,185.57184593542598 137.273071581871,184.72724976774072 137.04109329630097,183.88812024191756 136.79964650927914,183.05445735795635 136.54873122080545,182.22626111585728 136.28834743087992,181.4035315156202 136.0184951395026,180.58626855724515 135.73917434667342,179.7744722407322 135.45038505239236,178.96814256608118 135.1521272566595,178.1672795332923 134.8444009594748,177.3718831423654 134.52720616083826,176.58195339330055 134.2005428607499,175.79749028609777 133.8644110592097,175.01849382075702 133.51881075621765,174.2449639972783 133.16374195177377,173.47690081566165 132.79920464587804,172.71430427590695 132.4251988385305,171.95717437801437 132.04172452973108,171.20551112198382 131.64878171947984,170.4593145078153 131.2463704077768,169.71858453550885 130.83449059462188,168.98332120506444 130.41314228001514,168.253524516482 129.98232546395658,167.52919446976165 129.54204014644614,166.81033106490338 129.0922863274839,166.09693430190708 128.6330640070698,165.38900418077287 128.16437318520389,164.68654070150066 127.68621386188613,163.98954386409054 127.19858603711651,163.2980136685424 126.70148971089507,162.61195011485634 126.19492488322182,161.93135320303233 125.6788915540967,161.25622293307032 125.15338972351975,160.58655930497036 124.61841939149097,159.92236231873247 124.07398055801035,159.2636319743566 123.5200732230779,158.6103682718428 122.9566973866936,157.962571211191 122.38385304885746,157.32024079240122 121.80154020956948,156.68337701547352 121.2097588688297,156.05197988040788 120.60850902663805,155.42604938720424 119.99779068299455,154.80558553586266 119.37760383789924,154.1905883263831 118.7479484913521,153.5810577587656 118.1088246433531,152.97699383301017 117.46023229390228,152.3783965491167 116.80217144299962,151.78526590708535 116.13464209064512,151.19760190691602 115.45764423683877,150.6154045486087 114.7711778815806,150.03867383216345 114.07524302487059,149.46740975758024 113.36983966670874,148.90161232485903 112.65496780709506,148.3412815339999 111.93062744602955,147.7864173850028 111.19681858351217,147.23701987786774 110.45354121954297,146.69308901259473 109.70079535412194,146.15462478918374 108.93858098724908,145.62162720763482 108.16689811892437,145.09409626794792 107.38574674914783,144.57203197012305 106.59512687791944,144.0554343141602 105.79503850523922,143.54430330005945 104.98548163110718,143.03863892782073 104.16645625552327,142.53844119744403 103.33796237848755,142.04371010892936 102.49999999999999,141.55444566227675" stroke="white" stroke-width="0.5" /><polyline fill="none" points="152.5,206.50635094610965 152.5083638429491,205.3662827857811 152.50536548415602,204.23277459568703 152.49100492362078,203.10582637582746 152.46528216134328,201.98543812620224 152.42819719732356,200.87160984681148 152.37975003156168,199.76434153765527 152.31994066405758,198.6636331987334 152.24876909481128,197.56948483004604 152.16623532382275,196.4818964315931 152.072339351092,195.40086800337457 151.9670811766191,194.32639954539056 151.850460800404,193.25849105764098 151.72247822244668,192.19714254012584 151.5831334427471,191.14235399284516 151.4324264613054,190.09412541579889 151.27035727812145,189.0524568089871 151.0969258931953,188.01734817240973 150.91213230652693,186.98879950606684 150.7159765181164,185.96681080995842 150.50845852796363,184.95138208408437 150.28957833606867,183.94251332844482 150.05933594243155,182.94020454303973 149.81773134705216,181.94445572786907 149.56476454993057,180.95526688293285 149.30043555106678,179.97263800823112 149.0247443504608,178.9965691037638 148.73769094811263,178.02706016953096 148.4392753440222,177.06411120553253 148.12949753818964,176.10772221176856 147.80835753061484,175.15789318823906 147.47585532129781,174.21462413494396 147.1319909102386,173.27791505188333 146.77676429743718,172.34776593905718 146.41017548289355,171.42417679646545 146.03222446660774,170.50714762410817 145.64291124857974,169.59667842198536 145.24223582880947,168.69276919009695 144.83019820729706,167.79541992844304 144.40679838404242,166.90463063702353 143.97203635904557,166.02040131583854 143.5259121323065,165.14273196488793 143.06842570382526,164.27162258417178 142.5995770736018,163.40707317369012 142.11936624163616,162.5490837334429 141.6277932079283,161.69765426343008 141.12485797247822,160.85278476365173 140.61056053528594,160.01447523410786 140.08490089635146,159.1827256747984 139.5478790556748,158.3575360857234 138.99949501325588,157.53890646688285 138.43974876909482,156.72683681827675 137.8686403231915,155.92132713990512 137.286169675546,155.12237743176792 136.6923368261583,154.32998769386518 136.0871417750284,153.54415792619687 135.4705845221563,152.76488812876298 134.84266506754196,151.99217830156357 134.20338341118543,151.2260284445986 133.55273955308672,150.46643855786812 132.8907334932458,149.71340864137204 132.21736523166265,148.96693869511043 131.53263476833732,148.22702871908325 130.83654210326978,147.49367871329054 130.12908723646,146.76688867773225 129.4102701679081,146.04665861240844 128.68009089761392,145.33298851731908 127.93854942557758,144.62587839246416 127.185645751799,143.92532823784367 126.42137987627822,143.23133805345765 125.64575179901526,142.5439078393061 124.85876152001009,141.86303759538896 124.06040903926268,141.18872732170624 123.25069435677311,140.520977018258 122.42961747254132,139.85978668504424 121.59717838656732,139.2051563220649 120.75337709885115,138.55708592932 119.89821360939274,137.91557550680957 119.03168791819212,137.28062505453357 118.15380002524931,136.65223457249203 117.2645499305643,136.03040406068493 116.36393763413707,135.41513351911232 115.45196313596766,134.8064229477741 114.52862643605603,134.20427234667036 113.5939275344022,133.60868171580105 112.64786643100615,133.0196510551662 111.69044312586793,132.4371803647658 110.72165761898746,131.86126964459984 109.74150991036483,131.29191889466833 108.74999999999999,130.72912811497127" stroke="white" stroke-width="0.5" /><polyline fill="none" points="165.0,206.50635094610965 165.02146193662415,205.19654355596475 165.02966797121573,203.89438946442672 165.0246181037748,202.59988867149562 165.00631233430124,201.31304117717127 164.97475066279512,200.0338469814538 164.92993308925642,198.76230608434327 164.87185961368516,197.49841848583952 164.8005302360813,196.24218418594262 164.71594495644487,194.99360318465259 164.6181037747759,193.7526754819694 164.50700669107437,192.51940107789312 164.38265370534026,191.29377997242366 164.24504481757353,190.07581216556105 164.09418002777429,188.86549765730533 163.93005933594245,187.66283644765645 163.75268274207804,186.46782853661438 163.56205024618103,185.2804739241792 163.35816184825146,184.1007726103509 163.14101754828934,182.92872459512947 162.91061734629466,181.76432987851484 162.6669612422674,180.6075884605071 162.41004923620756,179.45850034110623 162.13988132811514,178.31706552031218 161.85645751799012,177.18328399812498 161.5597778058326,176.05715577454467 161.24984219164241,174.9386808495712 160.92665067541978,173.82785922320463 160.59020325716452,172.72469089544484 160.24049993687663,171.62917586629197 159.8775407145563,170.54131413574595 159.50132559020324,169.46110570380674 159.1118545638177,168.38855057047442 158.70912763539957,167.32364873574895 158.29314480494887,166.2664001996303 157.86390607246562,165.21680496211857 157.42141143794976,164.17486302321367 156.96566090140132,163.14057438291564 156.49665446282037,162.11393904122446 156.0143921222068,161.0949569981401 155.5188738795607,160.08362825366268 155.01009973488195,159.079952807792 154.48806968817067,158.08393066052827 153.95278373942685,157.0955618118714 153.4042418886504,156.11484626182133 152.84244413584142,155.14178401037816 152.26739048099986,154.1763750575418 151.67908092412574,153.21861940331235 151.07751546521905,152.2685170476897 150.46269410427976,151.32606799067395 149.8346168413079,150.39127223226504 149.19328367630348,149.464129772463 148.5386946092665,148.5446406112678 147.87084964019692,147.63280474867946 147.1897487690948,146.728622184698 146.49539199596012,145.83209291932337 145.78777932079282,144.9432169525556 145.06691074359298,144.0619942843947 144.33278626436055,143.18842491484062 143.58540588309558,142.32250884389344 142.824769599798,141.4642460715531 142.05087741446786,140.6136365978196 141.26372932710512,139.77068042269298 140.46332533770988,138.9353775461732 139.64966544628203,138.1077279682603 138.82274965282159,137.28773168895424 137.9825779573286,136.47538870825502 137.12915035980305,135.6706990261627 136.2624668602449,134.8736626426772 135.38252745865418,134.08427955779854 134.48933215503092,133.3025497715268 133.58288094937507,132.52847328386187 132.6631738416866,131.76205009480378 131.73021083196565,131.00328020435262 130.7839919202121,130.25216361250827 129.82451710642593,129.50870031927076 128.85178639060723,128.77289032464012 127.86579977275595,128.04473362861634 126.8665572528721,127.32423023119942 125.85405883095567,126.61138013238934 124.82830450700666,125.90618333218615 123.78929428102511,125.2086398305898 122.73702815301095,124.5187496276003 121.67150612296426,123.83651272321765 120.59272819088497,123.16192911744187 119.50069435677311,122.49499881027295 118.3954046206287,121.83572180171089 117.2768589824517,121.18409809175566 116.14505744224212,120.54012768040731 114.99999999999997,119.9038105676658" stroke="white" stroke-width="0.5" /><polyline fill="none" points="115.0,206.50635094610965 114.99999999999999,206.50635094610962" stroke="white" stroke-width="0.5" /><polyline fill="none" points="114.99999999999999,206.50635094610962 114.99999999999997,206.50635094610965" stroke="white" stroke-width="0.5" /><polyline fill="none" points="108.75,195.68103339880417 108.33338593611917,195.92429896166496 107.92624037369018,196.16756452452574 107.52856331271305,196.41083008738659 107.14035475318772,196.65409565024737 106.76161469511425,196.89736121310816 106.39234313849263,197.140626775969 106.03254008332281,197.38389233882978 105.68220552960486,197.62715790169057 105.34133947733872,197.87042346455135 105.00994192652442,198.1136890274121 104.688012877162,198.35695459027295 104.37555232925136,198.60022015313376 104.07256028279257,198.84348571599455 103.77903673778565,199.08675127885536 103.49498169423055,199.33001684171617 103.22039515212727,199.57328240457696 102.95527711147581,199.81654796743769 102.69962757227621,200.05981353029853 102.45344653452847,200.30307909315934 102.21673399823256,200.5463446560201 101.98948996338846,200.7896102188809 101.77171442999621,201.03287578174175 101.5634073980558,201.27614134460254 101.36456886756723,201.51940690746332 101.17519883853049,201.7626724703241 100.99529731094559,202.00593803318492 100.82486428481253,202.24920359604567 100.6638997601313,202.4924691589065 100.51240373690192,202.7357347217673 100.37037621512437,202.9790002846281 100.23781719479864,203.22226584748887 100.11472667592476,203.46553141034968 100.00110465850273,203.7087969732105 99.8969511425325,203.95206253607125 99.80226612801414,204.19532809893207 99.7170496149476,204.43859366179288 99.6413016033329,204.68185922465366 99.57502209317005,204.92512478751448 99.51821108445904,205.16839035037526 99.47086857719987,205.41165591323607 99.4329945713925,205.65492147609683 99.40458906703698,205.89818703895762 99.38565206413331,206.14145260181846 99.37618356268149,206.38471816467927 99.37618356268149,206.62798372754006 99.38565206413332,206.87124929040084 99.40458906703698,207.11451485326162 99.4329945713925,207.3577804161224 99.47086857719987,207.60104597898325 99.51821108445903,207.84431154184404 99.57502209317006,208.08757710470482 99.64130160333292,208.33084266756563 99.7170496149476,208.57410823042642 99.80226612801414,208.81737379328723 99.89695114253252,209.06063935614804 100.00110465850273,209.30390491900883 100.11472667592476,209.5471704818696 100.23781719479862,209.7904360447304 100.37037621512437,210.0337016075912 100.5124037369019,210.276967170452 100.6638997601313,210.5202327333128 100.82486428481252,210.7634982961736 100.99529731094559,211.00676385903438 101.17519883853049,211.2500294218952 101.36456886756723,211.493294984756 101.5634073980558,211.73656054761682 101.77171442999622,211.9798261104776 101.98948996338846,212.2230916733384 102.21673399823254,212.46635723619917 102.45344653452847,212.70962279905999 102.69962757227623,212.95288836192077 102.95527711147582,213.19615392478156 103.22039515212727,213.4394194876424 103.49498169423055,213.68268505050318 103.77903673778563,213.92595061336394 104.07256028279258,214.16921617622475 104.37555232925138,214.4124817390856 104.68801287716197,214.65574730194635 105.00994192652442,214.89901286480713 105.34133947733872,215.14227842766792 105.68220552960486,215.38554399052876 106.03254008332281,215.62880955338954 106.39234313849262,215.87207511625033 106.76161469511426,216.11534067911114 107.14035475318772,216.35860624197193 107.52856331271303,216.60187180483274 107.92624037369018,216.84513736769352 108.33338593611917,217.0884029305543 108.75,217.33166849341512" stroke="white" stroke-width="0.5" /><polyline fill="none" points="102.5,184.8557158514987 101.66677187223834,185.3422469772203 100.85248074738035,185.82877810294187 100.0571266254261,186.31530922866347 99.28070950637546,186.8018403543851 98.5232293902285,187.28837148010663 97.78468627698524,187.7749026058283 97.06508016664564,188.26143373154991 96.3644110592097,188.74796485727148 95.68267895467743,189.23449598299305 95.01988385304884,189.7210271087146 94.37602575432396,190.20755823443625 93.75110465850273,190.69408936015785 93.14512056558516,191.18062048587942 92.55807347557128,191.667151611601 91.98996338846106,192.15368273732264 91.44079030425452,192.6402138630442 90.91055422295163,193.12674498876578 90.39925514455246,193.61327611448738 89.90689306905693,194.099807240209 89.4334679964651,194.58633836593057 88.97897992677693,195.07286949165217 88.54342885999243,195.5594006173738 88.1268147961116,196.0459317430954 87.72913773513444,196.53246286881696 87.35039767706098,197.01899399453856 86.99059462189118,197.50552512026016 86.64972856962505,197.99205624598173 86.3277995202626,198.47858737170336 86.0248074738038,198.96511849742492 85.74075243024872,199.45164962314655 85.47563438959727,199.93818074886812 85.22945335184953,200.42471187458972 85.00220931700544,200.91124300031132 84.79390228506502,201.39777412603289 84.60453225602828,201.88430525175448 84.43409922989522,202.37083637747608 84.28260320666583,202.8573675031977 84.15004418634011,203.34389862891933 84.03642216891807,203.83042975464087 83.9417371543997,204.31696088036244 83.865989142785,204.80349200608407 83.80917813407397,205.29002313180564 83.77130412826664,205.77655425752727 83.75236712536295,206.26308538324886 83.75236712536295,206.74961650897043 83.77130412826664,207.23614763469203 83.80917813407397,207.72267876041363 83.865989142785,208.20920988613523 83.9417371543997,208.69574101185682 84.03642216891807,209.18227213757842 84.15004418634011,209.66880326330002 84.28260320666583,210.15533438902162 84.43409922989522,210.6418655147432 84.60453225602828,211.1283966404648 84.79390228506503,211.61492776618638 85.00220931700542,212.10145889190798 85.22945335184951,212.58799001762958 85.47563438959727,213.07452114335115 85.7407524302487,213.56105226907277 86.0248074738038,214.04758339479434 86.32779952026259,214.53411452051597 86.64972856962504,215.02064564623754 86.99059462189118,215.50717677195914 87.35039767706098,215.99370789768074 87.72913773513446,216.48023902340233 88.1268147961116,216.96677014912393 88.54342885999243,217.45330127484553 88.97897992677693,217.93983240056713 89.43346799646508,218.4263635262887 89.90689306905693,218.91289465201032 90.39925514455246,219.3994257777319 90.91055422295165,219.88595690345346 91.44079030425452,220.3724880291751 91.98996338846106,220.8590191548967 92.55807347557126,221.34555028061828 93.14512056558516,221.83208140633988 93.75110465850271,222.31861253206148 94.37602575432395,222.80514365778305 95.01988385304885,223.29167478350465 95.68267895467743,223.77820590922624 96.36441105920969,224.26473703494784 97.06508016664563,224.75126816066944 97.78468627698524,225.23779928639104 98.5232293902285,225.72433041211264 99.28070950637546,226.2108615378342 100.05712662542608,226.6973926635558 100.85248074738037,227.1839237892774 101.66677187223834,227.670454914999 102.5,228.1569860407206" stroke="white" stroke-width="0.5" /><polyline fill="none" points="96.25,174.0303983041932 95.00015780835753,174.76019499277558 93.77872112107056,175.48999168135796 92.58568993813913,176.21978836994037 91.42106425956318,176.94958505852276 90.28484408534275,177.67938174710517 89.17702941547786,178.40917843568755 88.09762024996844,179.13897512426996 87.04661658881456,179.86877181285234 86.02401843201615,180.59856850143473 85.02982577957327,181.3283651900171 84.06403863148591,182.05816187859952 83.12665698775407,182.78795856718193 82.21768084837773,183.51775525576429 81.33711021335691,184.2475519443467 80.4849450826916,184.97734863292908 79.66118545638179,185.7071453215115 78.86583133442747,186.43694201009384 78.09888271682867,187.16673869867626 77.3603396035854,187.89653538725867 76.65020199469764,188.62633207584102 75.96846989016538,189.3561287644234 75.31514328998865,190.08592545300584 74.69022219416742,190.81572214158822 74.09370660270169,191.5455188301706 73.52559651559146,192.275315518753 72.98589193283676,193.0051122073354 72.47459285443757,193.73490889591778 71.99169928039387,194.46470558450017 71.53721121070572,195.19450227308258 71.11112864537307,195.924298961665 70.71345158439591,196.6540956502473 70.34418002777427,197.38389233882975 70.00331397550815,198.11368902741214 69.69085342759752,198.84348571599452 69.40679838404242,199.57328240457693 69.15114884484282,200.30307909315934 68.92390480999873,201.0328757817417 68.72506627951017,201.7626724703241 68.55463325337709,202.4924691589065 68.41260573159956,203.22226584748887 68.2989837141775,203.95206253607125 68.21376720111095,204.68185922465364 68.15695619239995,205.41165591323607 68.12855068804444,206.14145260181846 68.12855068804444,206.87124929040087 68.15695619239995,207.60104597898325 68.21376720111097,208.3308426675656 68.2989837141775,209.06063935614802 68.41260573159954,209.79043604473043 68.55463325337709,210.5202327333128 68.72506627951017,211.2500294218952 68.92390480999873,211.9798261104776 69.15114884484282,212.70962279905999 69.40679838404242,213.4394194876424 69.69085342759753,214.16921617622478 70.00331397550815,214.89901286480716 70.34418002777427,215.62880955338957 70.71345158439591,216.35860624197193 71.11112864537306,217.08840293055434 71.53721121070572,217.81819961913675 71.99169928039389,218.54799630771913 72.47459285443757,219.2777929963015 72.98589193283676,220.0075896848839 73.52559651559147,220.73738637346628 74.09370660270167,221.4671830620487 74.6902221941674,222.1969797506311 75.31514328998864,222.92677643921348 75.96846989016538,223.65657312779587 76.65020199469764,224.38636981637825 77.3603396035854,225.11616650496066 78.09888271682868,225.845963193543 78.86583133442747,226.57575988212542 79.66118545638179,227.30555657070784 80.48494508269158,228.03535325929025 81.3371102133569,228.76514994787257 82.21768084837774,229.494946636455 83.12665698775407,230.22474332503742 84.06403863148591,230.95454001361978 85.02982577957327,231.6843367022022 86.02401843201616,232.41413339078457 87.04661658881456,233.14393007936695 88.09762024996844,233.87372676794936 89.17702941547785,234.60352345653175 90.28484408534275,235.33332014511413 91.4210642595632,236.06311683369654 92.58568993813911,236.79291352227892 93.77872112107056,237.5227102108613 95.00015780835753,238.25250689944372 96.25,238.9823035880261" stroke="white" stroke-width="0.5" /><polyline fill="none" points="90.0,163.20508075688772 88.3335437444767,164.17814300833092 86.70496149476075,165.1512052597741 85.11425325085219,166.12426751121728 83.5614190127509,167.09732976266048 82.04645878045702,168.07039201410365 80.56937255397047,169.04345426554687 79.13016033329127,170.0165165169901 77.7288221184194,170.98957876843326 76.36535790935487,171.96264101987643 75.03976770609769,172.9357032713196 73.75205150864791,173.90876552276282 72.50220931700544,174.88182777420602 71.29024113117029,175.85489002564918 70.11614695114254,176.8279522770924 68.97992677692213,177.80101452853557 67.88158060850903,178.77407677997874 66.82110844590329,179.7471390314219 65.7985102891049,180.7202012828651 64.81378613811388,181.69326353430836 63.86693599293018,182.6663257857515 62.957959853553845,183.6393880371947 62.08685771998486,184.6124502886379 61.253629592223206,185.58551254008108 60.4582754702689,186.55857479152428 59.70079535412195,187.53163704296747 58.98118924378235,188.50469929441064 58.2994571392501,189.47776154585387 57.65559904052518,190.45082379729703 57.04961494760762,191.4238860487402 56.481504860497424,192.39694830018342 55.95126877919454,193.3700105516266 55.45890670369903,194.3430728030698 55.00441863401086,195.31613505451298 54.58780457013003,196.28919730595615 54.20906451205656,197.26225955739935 53.86819845979043,198.23532180884254 53.56520641333165,199.2083840602857 53.30008837268022,200.18144631172893 53.07284433783613,201.1545085631721 52.88347430879939,202.1275708146153 52.731978285569994,203.10063306605846 52.618356268147956,204.07369531750163 52.54260825653326,205.04675756894486 52.50473425072592,206.01981982038808 52.50473425072592,206.99288207183125 52.54260825653326,207.9659443232744 52.61835626814796,208.9390065747176 52.73197828557,209.9120688261608 52.88347430879939,210.885131077604 53.07284433783613,211.8581933290472 53.30008837268022,212.8312555804904 53.56520641333165,213.8043178319336 53.868198459790435,214.77738008337676 54.209064512056564,215.75044233481995 54.58780457013003,216.72350458626312 55.00441863401086,217.69656683770634 55.45890670369903,218.66962908914954 55.95126877919454,219.6426913405927 56.48150486049741,220.6157535920359 57.04961494760762,221.5888158434791 57.65559904052518,222.5618780949223 58.299457139250094,223.53494034636546 58.98118924378235,224.50800259780863 59.70079535412195,225.48106484925185 60.4582754702689,226.45412710069502 61.25362959222321,227.4271893521382 62.08685771998485,228.4002516035814 62.957959853553845,229.3733138550246 63.86693599293018,230.34637610646774 64.81378613811387,231.31943835791097 65.79851028910491,232.29250060935416 66.82110844590329,233.26556286079733 67.88158060850903,234.23862511224053 68.97992677692211,235.21168736368375 70.11614695114253,236.1847496151269 71.2902411311703,237.1578118665701 72.50220931700542,238.13087411801334 73.7520515086479,239.10393636945648 75.0397677060977,240.07699862089967 76.36535790935487,241.05006087234287 77.72882211841939,242.02312312378606 79.13016033329126,242.99618537522926 80.56937255397047,243.96924762667243 82.04645878045702,244.94230987811562 83.5614190127509,245.91537212955882 85.11425325085214,246.88843438100199 86.70496149476075,247.86149663244518 88.33354374447671,248.83455888388838 90.0,249.80762113533157" stroke="white" stroke-width="0.5" /><polyline fill="none" points="189.99999999999997,163.20508075688772 189.9785380633758,164.5148881470326 189.97033202878418,165.8170422385706 189.97538189622523,167.11154303150178 189.99368766569876,168.3983905258261 190.02524933720485,169.67758472154352 190.0700669107436,170.94912561865416 190.12814038631487,172.2130132171579 190.19946976391867,173.46924751705478 190.28405504355504,174.71782851834476 190.38189622522404,175.95875622102793 190.4929933089256,177.19203062510425 190.61734629465977,178.41765173057374 190.75495518242644,179.6356195374363 190.90581997222571,180.84593404569208 191.06994066405758,182.04859525534096 191.247317257922,183.24360316638294 191.43794975381894,184.4309577788181 191.6418381517485,185.61065909264642 191.85898245171063,186.7827071078679 192.08938265370531,187.9471018244825 192.3330387577326,189.10384324249026 192.58995076379244,190.25293136189117 192.86011867188486,191.3943661826852 193.14354248200982,192.5281477048724 193.44022219416738,193.6542759284527 193.75015780835747,194.77275085342615 194.07334932458022,195.88357247979275 194.40979674283545,196.98674080755248 194.7595000631233,198.08225583670537 195.12245928544377,199.17011756725145 195.49867440979673,200.25032599919064 195.8881454361823,201.32288113252295 196.29087236460043,202.38778296724843 196.7068551950511,203.44503150336703 197.13609392753438,204.49462674087877 197.57858856205021,205.53656867978367 198.03433909859865,206.5708573200817 198.50334553717965,207.59749266177292 198.9856078777932,208.6164747048572 199.48112612043934,209.6278034493347 199.98990026511802,210.6314788952053 200.0,210.65074897302424" stroke="white" stroke-width="0.5" /><polyline fill="none" points="40.0,249.8076211353316 10.0,232.48711305964284" stroke="white" stroke-width="0.5" /><polyline fill="none" points="33.75,260.6329386826371 10.0,246.92086978938346" stroke="white" stroke-width="0.5" /><polyline fill="none" points="27.500000000000004,271.45825622994255 10.0,261.3546265191241" stroke="white" stroke-width="0.5" /><polyline fill="none" points="21.25,282.2835737772481 10.0,275.78838324886476" stroke="white" stroke-width="0.5" /><polyline fill="none" points="114.4421441575816,287.0 114.4350460800404,286.947985946034 114.3473046332534,286.34993532632683 114.25388208559527,285.7551646917368 114.15477843706603,285.16367404226406 114.04999368766572,284.5754633779085 113.9395278373943,283.9905326986702 113.82338088625175,283.4088820045491 113.7015528342381,282.8305112955452 113.57404368135336,282.2554205716585 113.44085342759753,281.68360983288915 113.30198207297059,281.1150790792369 113.15742961747256,280.5498283107019 113.00719606110341,279.98785752728423 112.85128140386315,279.4291667289837 112.68968564575181,278.87375591580036 112.52240878676936,278.32162508773433 112.34945082691578,277.7727742447854 112.17081176619114,277.2272033869538 111.98649160459537,276.6849125142394 111.79649034212852,276.1459016266422 111.60080797879058,275.6101707241623 111.3994445145815,275.0777198067995 111.19239994950132,274.548548874554 110.97967428355005,274.0226579274257 110.76126751672768,273.50004696541464 110.53717964903423,272.98071598852084 110.30741068046964,272.4646649967442 110.07196061103396,271.95189399008484 109.8308294407272,271.4424029685427 109.5840171695493,270.9361919321177 109.33152379750032,270.43326088081 109.07334932458024,269.9336098146195 108.80949375078903,269.4372387335462 108.53995707612675,268.94414763759016 108.26473930059338,268.4543365267514 107.98384042418887,267.9678054010298 107.69726044691326,267.4845542604254 107.40499936876657,267.00458310493826 107.10705718974877,266.5278919345684 106.80343390985986,266.05448074931564 106.49412952909987,265.58434954918016 106.17914404746877,265.11749833416195 105.85847746496654,264.6539271042609 105.53212978159323,264.1936358594771 105.20010099734884,263.7366245998105 104.86239111223331,263.28289332526117 104.51900012624668,262.83244203582905 104.16992803938896,262.38527073151414 103.81517485166015,261.94137941231645 103.45474056306023,261.50076807823604 103.0886251735892,261.0634367292728 102.71682868324706,260.62938536542674 102.33935109203384,260.198613986698 101.95619239994951,259.77112259308643 101.56735260699406,259.3469111845921 101.17283171316753,258.925979761215 100.77262971846989,258.5083283229551 100.36674662290116,258.0939568698125 99.9551824264613,257.682865401787 99.53793712915035,257.27505391887877 99.11501073096832,256.8705224210878 98.68640323191516,256.46927090841405 98.2521146319909,256.07129938085745 97.81214493119556,255.6766078384182 97.36649412952912,255.2851962810961 96.91516222699153,254.89706470889118 96.45814922358288,254.5122131218036 95.99545511930312,254.13064151983315 95.52707991415227,253.75234990297994 95.05302360813027,253.37733827124396 94.57328620123721,253.00560662462522 94.08786769347304,252.63715496312372 93.59676808483778,252.27198328673944 93.09998737533141,251.91009159547235 92.59752556495393,251.55147988932248 92.08938265370533,251.19614816828985 91.57555864158566,250.84409643237447 91.05605352859487,250.49532468157625 90.53086731473299,250.14983291589533 90.0,249.8076211353316" stroke="white" stroke-width="0.5" /><polyline fill="none" points="127.1612012532447,287.0 127.14524681227121,286.82662649669675 127.06681605857847,286.0610233039179 126.98081050372427,285.2997934246288 126.88723014770864,284.54293685882936 126.78607499053153,283.7904536065195 126.67734503219292,283.04234366769924 126.56104027269286,282.29860704236864 126.43716071203133,281.5592437305277 126.30570635020833,280.8242537321763 126.16667718722384,280.09363704731464 126.0200732230779,279.36739367594254 125.86589445777048,278.64552361806017 125.70414089130159,277.92802687366736 125.53481252367126,277.21490344276424 125.35790935487945,276.5061533253507 125.17343138492616,275.8017765214268 124.9813786138114,275.1017730309925 124.78175104153516,274.40614285404786 124.57454866809746,273.71488599059285 124.35977149349831,273.02800244062746 124.13741951773767,272.3454922041517 123.90749274081556,271.6673552811656 123.669991162732,270.99359167166915 123.42491478348694,270.32420137566226 123.17226360308042,269.6591843931451 122.91203762151244,268.9985407241175 122.64423683878297,268.34227036857953 122.36886125489207,267.69037332653124 122.08591086983968,267.0428495979725 121.79538568362581,266.3996991829035 121.4972856962505,265.7609220813241 121.19161090771368,265.1265182932343 120.87836131801541,264.49648781863414 120.55753692715565,263.8708306575236 120.22913773513444,263.24954680990265 119.89316374195177,262.63263627577146 119.54961494760764,262.02009905512983 119.19849135210201,261.41193514797783 118.83979295543493,260.8081445543155 118.47351975760637,260.20872727414275 118.09967175861634,259.6136833074596 117.71824895846484,259.02301265426615 117.32925135715186,258.4367153145624 116.93267895467746,257.85479128834817 116.52853175104153,257.2772405756236 116.11680974624417,256.7040631763887 115.69751294028532,256.1352590906434 115.27064133316502,255.57082831838773 114.83619492488323,255.01077085962163 114.39417371543996,254.45508671434524 113.94457770483524,253.90377588255848 113.48740689306905,253.3568383642613 113.02266128014139,252.81427415945382 112.55034086605227,252.27608326813595 112.07044565080167,251.74226569030768 111.5829756343896,251.21282142596908 111.08793081681607,250.6877504751201 110.58531119808106,250.16705283776076 110.07511677818458,249.65072851389104 109.55734755712663,249.13877750351097 109.03200353490722,248.63119980662051 108.49908471152632,248.12799542321966 107.95859108698397,247.6291643533085 107.41052266128015,247.13470659688696 106.85487943441484,246.64462215395503 106.2916614063881,246.15891102451275 105.72086857719987,245.6775732085601 105.14250094685013,245.20060870609706 104.55655851533898,244.72801751712367 103.96304128266632,244.25979964163994 103.36194924883222,243.7959550796458 102.75328241383664,243.33648383114127 102.13704077767959,242.88138589612643 101.51322434036108,242.43066127460122 100.88183310188107,241.9843099665656 100.24286706223963,241.54233197201964 99.59632622143668,241.10472729096333 98.94221057947229,240.6714959233966 98.28052013634642,240.24263786931954 97.61125489205908,239.8181531287321 96.93441484661028,239.3980417016343 96.25,238.98230358802613" stroke="white" stroke-width="0.5" /><polyline fill="none" points="139.80534893550256,287.0 139.76802171443,286.43138829007125 139.69700795354123,285.4993258525933 139.6165256912006,284.57273005697743 139.52657492740815,283.65160090322365 139.42715566216387,282.7359383913319 139.31826789546776,281.8257425213022 139.19991162731978,280.9210132931345 139.07208685772,280.02175070682887 138.93479358666838,279.1279547623853 138.7880318141649,278.2396254598037 138.63180154020955,277.3567627990841 138.4661027648024,276.47936678022666 138.29093548794344,275.60743740323124 138.1062997096326,274.74097466809786 137.91219542986997,273.87997857482645 137.70862264865548,273.0244491234172 137.49558136598912,272.17438631386983 137.273071581871,271.3297901461847 137.04109329630097,270.49066062036144 136.79964650927914,269.6569977364003 136.54873122080545,268.82880149430116 136.28834743087992,268.00607189406406 136.0184951395026,267.18880893568905 135.73917434667342,266.37701261917607 135.45038505239236,265.57068294452506 135.1521272566595,264.7698199117362 134.8444009594748,263.9744235208093 134.52720616083826,263.1844937717444 134.2005428607499,262.40003066454165 133.8644110592097,261.6210341992009 133.51881075621765,260.84750437572217 133.16374195177377,260.0794411941056 132.79920464587804,259.3168446543509 132.4251988385305,258.55971475645833 132.04172452973108,257.8080515004277 131.64878171947984,257.0618548862592 131.2463704077768,256.32112491395276 130.83449059462188,255.58586158350835 130.41314228001514,254.85606489492594 129.98232546395658,254.13173484820555 129.54204014644614,253.41287144334726 129.0922863274839,252.699474680351 128.6330640070698,251.99154455921678 128.16437318520389,251.28908107994454 127.68621386188613,250.59208424253444 127.19858603711651,249.9005540469863 126.70148971089507,249.21449049330022 126.19492488322182,248.5338935814762 125.6788915540967,247.85876331151422 125.15338972351975,247.18909968341427 124.61841939149097,246.52490269717634 124.07398055801035,245.8661723528005 123.5200732230779,245.21290865028666 122.9566973866936,244.5651115896349 122.38385304885746,243.9227811708451 121.80154020956948,243.28591739391743 121.2097588688297,242.65452025885176 120.60850902663805,242.02858976564812 119.99779068299455,241.40812591430654 119.37760383789924,240.793128704827 118.7479484913521,240.18359813720951 118.1088246433531,239.57953421145407 117.46023229390228,238.9809369275606 116.80217144299962,238.38780628552922 116.13464209064512,237.8001422853599 115.45764423683877,237.21794492705257 114.7711778815806,236.64121421060736 114.07524302487059,236.06995013602415 113.36983966670874,235.50415270330294 112.65496780709506,234.9438219124438 111.93062744602955,234.3889577634467 111.19681858351217,233.83956025631164 110.45354121954297,233.2956293910386 109.70079535412194,232.75716516762765 108.93858098724908,232.22416758607872 108.16689811892437,231.69663664639182 107.38574674914783,231.17457234856695 106.59512687791944,230.65797469260414 105.79503850523922,230.14684367850336 104.98548163110718,229.64117930626463 104.16645625552327,229.14098157588793 103.33796237848755,228.64625048737327 102.49999999999999,228.15698604072065" stroke="white" stroke-width="0.5" /><polyline fill="none" points="152.4074513362084,287.0 152.37975003156168,286.36688191609915 152.31994066405758,285.2661735771773 152.24876909481128,284.1720252084899 152.16623532382275,283.08443681003695 152.072339351092,282.0034083818185 151.9670811766191,280.92893992383443 151.850460800404,279.8610314360849 151.72247822244668,278.7996829185697 151.5831334427471,277.74489437128904 151.4324264613054,276.6966657942428 151.27035727812145,275.654997187431 151.0969258931953,274.6198885508536 150.91213230652693,273.5913398845107 150.7159765181164,272.56935118840227 150.50845852796363,271.5539224625283 150.28957833606867,270.5450537068887 150.05933594243155,269.5427449214837 149.81773134705216,268.546996106313 149.56476454993057,267.5578072613768 149.30043555106678,266.57517838667496 149.0247443504608,265.59910948220767 148.73769094811263,264.62960054797486 148.4392753440222,263.66665158397643 148.12949753818964,262.71026259021244 147.80835753061484,261.760433566683 147.47585532129781,260.81716451338787 147.1319909102386,259.8804554303273 146.77676429743718,258.9503063175011 146.41017548289355,258.0267171749093 146.03222446660774,257.10968800255205 145.64291124857974,256.19921880042926 145.24223582880947,255.29530956854086 144.83019820729706,254.39796030688697 144.40679838404242,253.50717101546746 143.97203635904557,252.62294169428245 143.5259121323065,251.7452723433318 143.06842570382526,250.87416296261566 142.5995770736018,250.00961355213403 142.11936624163616,249.15162411188678 141.6277932079283,248.300194641874 141.12485797247822,247.45532514209566 140.61056053528594,246.61701561255174 140.08490089635146,245.7852660532423 139.5478790556748,244.96007646416732 138.99949501325588,244.14144684532675 138.43974876909482,243.32937719672066 137.8686403231915,242.523867518349 137.286169675546,241.72491781021176 136.6923368261583,240.93252807230905 136.0871417750284,240.14669830464075 135.4705845221563,239.3674285072069 134.84266506754196,238.59471868000747 134.20338341118543,237.82856882304247 133.55273955308672,237.06897893631196 132.8907334932458,236.31594901981595 132.21736523166265,235.5694790735543 131.53263476833732,234.82956909752716 130.83654210326978,234.09621909173444 130.12908723646,233.36942905617616 129.4102701679081,232.64919899085234 128.68009089761392,231.93552889576296 127.93854942557758,231.22841877090804 127.185645751799,230.5278686162876 126.42137987627822,229.8338784319015 125.64575179901526,229.14644821774996 124.85876152001009,228.46557797383284 124.06040903926268,227.79126770015012 123.25069435677311,227.1235173967019 122.42961747254132,226.46232706348815 121.59717838656732,225.80769670050876 120.75337709885115,225.15962630776392 119.89821360939274,224.51811588525345 119.03168791819212,223.88316543297748 118.15380002524931,223.2547749509359 117.2645499305643,222.6329444391288 116.36393763413707,222.0176738975562 115.45196313596766,221.408963326218 114.52862643605603,220.80681272511424 113.5939275344022,220.21122209424493 112.64786643100615,219.62219143361006 111.69044312586793,219.03972074320967 110.72165761898746,218.46381002304372 109.74150991036483,217.8944592731122 108.74999999999999,217.33166849341515" stroke="white" stroke-width="0.5" /><polyline fill="none" points="164.9837221096175,287.0 164.97475066279512,286.63638735989764 164.92993308925642,285.36484646278717 164.87185961368516,284.1009588642834 164.8005302360813,282.8447245643865 164.71594495644487,281.59614356309646 164.6181037747759,280.3552158604133 164.50700669107437,279.12194145633697 164.38265370534026,277.89632035086754 164.24504481757353,276.67835254400495 164.09418002777429,275.46803803574926 163.93005933594245,274.26537682610035 163.75268274207804,273.0703689150583 163.56205024618103,271.8830143026231 163.35816184825146,270.7033129887948 163.14101754828934,269.53126497357334 162.91061734629466,268.36687025695875 162.6669612422674,267.210128838951 162.41004923620756,266.06104071955014 162.13988132811514,264.9196058987561 161.85645751799012,263.78582437656894 161.5597778058326,262.65969615298854 161.24984219164241,261.5412212280151 160.92665067541978,260.43039960164856 160.59020325716452,259.32723127388874 160.24049993687663,258.2317162447359 159.8775407145563,257.14385451418985 159.50132559020324,256.06364608225067 159.1118545638177,254.99109094891833 158.70912763539957,253.92618911419282 158.29314480494887,252.86894057807422 157.86390607246562,251.8193453405625 157.42141143794976,250.7774034016576 156.96566090140132,249.74311476135952 156.49665446282037,248.71647941966842 156.0143921222068,247.69749737658404 155.5188738795607,246.68616863210656 155.01009973488195,245.68249318623594 154.48806968817067,244.68647103897212 153.95278373942685,243.69810219031527 153.4042418886504,242.71738664026523 152.84244413584142,241.74432438882204 152.26739048099986,240.77891543598568 151.67908092412574,239.82115978175622 151.07751546521905,238.87105742613363 150.46269410427976,237.92860836911785 149.8346168413079,236.99381261070894 149.19328367630348,236.06667015090693 148.5386946092665,235.14718098971173 147.87084964019692,234.23534512712337 147.1897487690948,233.3311625631419 146.49539199596012,232.43463329776728 145.78777932079282,231.5457573309995 145.06691074359298,230.6645346628386 144.33278626436055,229.7909652932845 143.58540588309558,228.92504922233735 142.824769599798,228.06678644999698 142.05087741446786,227.21617697626348 141.26372932710512,226.37322080113688 140.46332533770988,225.5379179246171 139.64966544628203,224.7102683467042 138.82274965282159,223.89027206739814 137.9825779573286,223.07792908669893 137.12915035980305,222.27323940460658 136.2624668602449,221.4762030211211 135.38252745865418,220.68681993624244 134.48933215503092,219.90509014997068 133.58288094937507,219.13101366230575 132.6631738416866,218.3645904732477 131.73021083196565,217.60582058279647 130.7839919202121,216.85470399095215 129.82451710642593,216.11124069771463 128.85178639060723,215.37543070308402 127.86579977275595,214.64727400706025 126.8665572528721,213.92677060964328 125.85405883095567,213.21392051083325 124.82830450700666,212.50872371063002 123.78929428102511,211.8111802090337 122.73702815301095,211.1212900060442 121.67150612296426,210.43905310166156 120.59272819088497,209.76446949588575 119.50069435677311,209.0975391887168 118.3954046206287,208.43826218015477 117.2768589824517,207.78663847019953 116.14505744224212,207.14266805885117 114.99999999999997,206.50635094610968" stroke="white" stroke-width="0.5" /><polyline fill="none" points="103.4516969185018,287.0 102.12283802550184,286.3739885505197 100.59840929175607,285.6797250340406 99.092917560914,285.01826136873365 97.60636283297565,284.3895975545991 96.13874510794093,283.7937335916367 94.69006438580988,283.2306694798465 93.2603206665825,282.7004052192286 91.84951395025882,282.20294080978294 90.45764423683879,281.7382762515095 89.08471152632242,281.30641154440826 87.73071581870975,280.9073466884793 86.39565711400076,280.5410816837226 85.07953541219543,280.2076165301382 83.78235071329378,279.9069512277259 82.5041030172958,279.639085776486 81.2447923242015,279.40402017641827 80.00441863401085,279.2017544275227 78.78298194672391,279.0322885297995 77.58048226234061,278.8956224832485 76.39691958086101,278.7917562878697 75.23229390228506,278.7206899436632 74.0866052266128,278.6824234506289 72.95985355384423,278.6769568087669 71.85203888397929,278.704290018077 70.76316121701805,278.7644230785595 69.69322055296048,278.85735599021416 68.64221689180658,278.9830887530411 67.61015023355638,279.1416213670403 66.59702057820982,279.3329538322117 65.60282792576695,279.55708614855536 64.62757227622777,279.8140183160713 63.67125362959223,280.1037503347594 62.73387198586037,280.4262822046198 61.81542734503219,280.78161392565244 60.91591970710768,281.16974549785726 60.03534907208686,281.5906769212344 59.173715439969705,282.0444081957838 58.33101881075621,282.53093932150534 57.50725918444641,283.0502702983992 56.70243656104028,283.6024011264653 55.91655094053782,284.18733180570354 55.149602322939025,284.80506233611413 54.40159070824391,285.45559271769696 53.672516096452476,286.138922950452 52.962378487564706,286.8550530343793 52.8286043843046,287.0" stroke="white" stroke-width="0.5" /><polyline fill="none" points="190.0,249.8076211353316 189.99999999999997,249.80762113533157" stroke="white" stroke-width="0.5" /><polyline fill="none" points="183.74999999999997,260.6329386826371 184.16898118924377,260.8721042641013 184.5832281277616,261.10306988277256 184.9927408155536,261.3258355386507 185.3975192526196,261.54040123173576 185.79756343895968,261.7467669620278 186.1928733745739,261.94493272952684 186.58344905946217,262.13489853423266 186.96929049362453,262.3166643761455 187.35039767706095,262.49023025526526 187.72677060977142,262.655596171592 188.09840929175607,262.81276212512574 188.46531372301476,262.96172811586626 188.82748390354752,263.10249414381383 189.18491983335437,263.23506020896826 189.53762151243527,263.35942631132974 189.88558894079029,263.4755924508981 190.22882211841934,263.58355862767337 190.56732104532253,263.6833248416556 190.9010857214998,263.77489109284477 191.23011614695113,263.8582573812409 191.55441232167655,263.93342370684394 191.87397424567604,264.000390069654 192.18880191894962,264.0591564696709 192.49889534149727,264.1097229068948 192.804254513319,264.1520893813256 193.1048794344148,264.1862558929633 193.40077010478475,264.212222441808 193.6919265244287,264.22998902785963 193.9783486933468,264.2395556511182 194.26003661153894,264.2409223115838 194.53699027900515,264.2340890092562 194.8092096957455,264.2190557441356 195.07669486175985,264.1958225162219 195.33944577704833,264.1643893255151 195.5974624416109,264.1247561720154 195.85074485544754,264.07692305572255 196.09929301855826,264.02088997663657 196.3431069309431,263.95665693475763 196.58218659260194,263.88422393008557 196.8165320035349,263.8035909626205 197.04614316374193,263.71475803236234 197.27102007322304,263.6177251393111 197.49116273197828,263.5124922834668 197.70657114000755,263.3990594648295 197.91724529731096,263.2774266833991 198.1231852038884,263.14759393917564 198.3243908597399,263.0095612321591 198.52086226486554,262.8633285623495 198.71259941926525,262.7088959297469 198.89960232293902,262.5462633343512 199.0818709758869,262.37543077616243 199.25940537810882,262.1963982551806 199.43220552960483,262.0091657714057 199.60027143037496,261.8137333248378 199.7636030804191,261.6101009154768 199.9222004797374,261.39826854332273 200.0,261.2870111678059" stroke="white" stroke-width="0.5" /><polyline fill="none" points="177.5,271.45825622994255 178.33796237848756,271.9365873928711 179.16645625552326,272.39851863021346 179.9854816311072,272.8440499419698 180.79503850523923,273.2731813281399 181.59512687791945,273.685912788724 182.38574674914787,274.08224432372197 183.1668981189244,274.4621759331337 183.93858098724908,274.82570761695945 184.70079535412194,275.172839375199 185.45354121954296,275.5035712078524 186.1968185835122,275.8179031149198 186.93062744602955,276.115835096401 187.65496780709506,276.397367152296 188.36983966670877,276.662499282605 189.0752430248706,276.9112314873279 189.7711778815806,277.1435637664646 190.45764423683877,277.35949612001514 191.13464209064512,277.5590285479796 191.80217144299962,277.742161050358 192.46023229390227,277.9088936271502 193.1088246433531,278.0592262783563 193.74794849135213,278.19315900397635 194.37760383789924,278.3106918040102 194.99779068299458,278.4118246784579 195.60850902663807,278.4965576273196 196.20975886882968,278.56489065059503 196.8015402095695,278.61682374828445 197.38385304885747,278.6523569203877 197.95669738669363,278.67149016690485 198.52007322307793,278.6742234878359 199.07398055801033,278.6605568831808 199.618419391491,278.63049035293955 200.0,278.5973470224999" stroke="white" stroke-width="0.5" /><polyline fill="none" points="171.25,282.283573777248 172.5069435677313,283.0010705216408 173.74968438328492,283.6939673776544 174.97822244666082,284.36226434528885 176.19255775785885,285.0059614245441 177.39269031687917,285.6250586154202 178.57862012372178,286.2195559179172 179.75034717838656,286.7894533320348 180.1972827933012,287.0" stroke="white" stroke-width="0.5" /></g><g fill="none" id="group_2" stroke="green" /><g fill="none" id="group_3" stroke="blue" /><g fill="none" id="group_4" stroke="orange" /><g fill="none" id="group_5" stroke="purple" /><g fill="none" id="group_6" stroke="cyan" /><g fill="none" id="group_7" stroke="black" /><g fill="none" id="group_8" stroke="white" /><g fill="none" id="group_9" stroke="yellow" /><g fill="none" id="group_10" stroke="brown" /></svg>